HIERARCHY
ROOT Hips
{
	OFFSET 0.00000 0.00000 0.00000
	CHANNELS 6 Xposition Yposition Zposition Zrotation Yrotation Xrotation 
	JOINT LHipJoint
	{
		OFFSET 0 0 0
		CHANNELS 3 Zrotation Yrotation Xrotation
		JOINT LeftHip
		{
			OFFSET 1.26600 -1.82114 0.91038
			CHANNELS 3 Zrotation Yrotation Xrotation
			JOINT LeftKnee
			{
				OFFSET 2.50076 -6.87080 0.00000
				CHANNELS 3 Zrotation Yrotation Xrotation
				JOINT LeftAnkle
				{
					OFFSET 2.57364 -7.07102 0.00000
					CHANNELS 3 Zrotation Yrotation Xrotation
					JOINT LeftToe
					{
						OFFSET 0.13572 -0.37290 1.97004
						CHANNELS 3 Zrotation Yrotation Xrotation
						End Site
						{
							OFFSET 0.00000 -0.00000 1.01383
						}
					}
				}
			}
		}
	}
	JOINT RHipJoint
	{
		OFFSET 0 0 0
		CHANNELS 3 Zrotation Yrotation Xrotation
		JOINT RightHip
		{
			OFFSET -1.20803 -1.82114 0.91038
			CHANNELS 3 Zrotation Yrotation Xrotation
			JOINT RightKnee
			{
				OFFSET -2.54916 -7.00377 0.00000
				CHANNELS 3 Zrotation Yrotation Xrotation
				JOINT RightAnkle
				{
					OFFSET -2.56374 -7.04382 0.00000
					CHANNELS 3 Zrotation Yrotation Xrotation
					JOINT RightToe
					{
						OFFSET -0.23520 -0.64621 2.09921
						CHANNELS 3 Zrotation Yrotation Xrotation
						End Site
						{
							OFFSET -0.00000 -0.00000 1.10065
						}
					}
				}
			}
		}
	}
	JOINT lowerback
	{
		OFFSET 0 0 0
		CHANNELS 3 Zrotation Yrotation Xrotation
		JOINT Chest
		{
			OFFSET 0.05492 2.10797 -0.12074
			CHANNELS 3 Zrotation Yrotation Xrotation
			JOINT Chest2
			{
				OFFSET 0.04577 2.11592 -0.04483
				CHANNELS 3 Zrotation Yrotation Xrotation
				JOINT lowerneck
				{
					OFFSET 0 0 0
					CHANNELS 3 Zrotation Yrotation Xrotation
					JOINT Neck
					{
						OFFSET -0.10759 1.80167 0.15770
						CHANNELS 3 Zrotation Yrotation Xrotation
						JOINT Head
						{
							OFFSET 0.09237 1.77509 -0.40848
							CHANNELS 3 Zrotation Yrotation Xrotation
							End Site
							{
								OFFSET 0.03805 1.84093 -0.15754
							}
						}
					}
				}
				JOINT LeftCollar
				{
					OFFSET 0 0 0
					CHANNELS 3 Zrotation Yrotation Xrotation
					JOINT LeftShoulder
					{
						OFFSET 3.42372 1.09575 -0.28209
CHANNELS 3 Zrotation Xrotation Yrotation
						JOINT LeftElbow
						{
OFFSET 0 -4.956810 0.000000
CHANNELS 3 Zrotation Xrotation Yrotation
							JOINT LeftWrist
							{
OFFSET 0 -3.409150 0.000000
CHANNELS 3 Zrotation Xrotation Yrotation
								JOINT lhand
								{
									OFFSET 0 0 0
CHANNELS 3 Zrotation Xrotation Yrotation
									JOINT LFingers
									{
OFFSET 0 -0.616400 0.000000
CHANNELS 3 Zrotation Xrotation Yrotation
										End Site
										{
OFFSET 0 -0.496960 0.000000
										}
									}
								}
								JOINT LThumb
								{
OFFSET 0 0.000000 0.000000
CHANNELS 3 Zrotation Xrotation Yrotation
									End Site
									{
OFFSET 0 -0.504550 0.504550
									}
								}
							}
						}
					}
				}
				JOINT RightCollar
				{
					OFFSET 0 0 0
					CHANNELS 3 Zrotation Yrotation Xrotation
					JOINT RightShoulder
					{
						OFFSET -3.24731 1.15872 -0.32221
CHANNELS 3 Zrotation Xrotation Yrotation
						JOINT RightElbow
						{
OFFSET 0 -5.352000 0.000000
CHANNELS 3 Zrotation Xrotation Yrotation
							JOINT RightWrist
							{
OFFSET 0 -3.437210 -0.000000
CHANNELS 3 Zrotation Xrotation Yrotation
								JOINT rhand
								{
									OFFSET 0 0 0
CHANNELS 3 Zrotation Xrotation Yrotation
									JOINT RFingers
									{
OFFSET 0 -0.720090 0.000000
CHANNELS 3 Zrotation Xrotation Yrotation
										End Site
										{
OFFSET 0 -0.580560 0.000000
										}
									}
								}
								JOINT RThumb
								{
OFFSET 0 0.000000 0.000000
CHANNELS 3 Zrotation Xrotation Yrotation
									End Site
									{
OFFSET 0 -0.589420 0.589420
									}
								}
							}
						}
					}
				}
			}
		}
	}
}
MOTION
Frames: 11
Frame Time: 0.008333333333333333
-0.628578 17.535434 11.323941 -538.401808 -47.244147 181.505656 0.000000 0.000000 0.000000 -18.358099 2.246440 -9.713788 2.221834 9.313668 26.781540 1.093556 -5.035949 -18.731204 0.166308 2.626769 7.241395 0.000000 0.000000 0.000000 25.565276 -16.438358 -30.935958 -4.847138 -13.208922 40.156797 -0.965329 -9.158555 -24.012156 -0.650690 -5.156592 14.356437 -1.914508 -0.085062 7.810995 1.959896 -0.399279 3.589843 3.132637 -0.309849 -0.642704 -11.745644 -3.347941 -9.682210 7.920570 -8.897462 38.287612 3.794916 -5.508240 16.154396 0.000000 0.000000 0.000000 1.861902 2.403655 -19.049024 17.550520 -27.577618 4.339224 22.860921 4.771093 -21.706420 0.000000 0.000000 0.000000 -7.125000 0.000000 0.000000 -6.172624 53.240191 1.254648 0.000000 0.000000 0.000000 -4.289834 3.428929 10.620399 -20.989364 -31.813498 -6.045450 -21.559936 -16.742205 -11.993674 0.000000 0.000000 0.000000 7.125000 0.000000 0.000000 3.926501 17.131924 2.602078
-0.716573 17.553005 11.062787 -537.412023 -40.948450 182.039945 0.000000 0.000000 0.000000 -17.732872 1.556515 -9.061125 2.288579 9.443021 27.191176 1.293523 0.862136 -21.828904 0.026814 1.045517 2.874172 0.000000 0.000000 0.000000 26.684125 -12.526358 -28.322767 -4.274251 -12.516663 37.585226 -1.086679 -6.043222 -22.749420 -0.946828 -6.196883 17.356789 -0.971264 0.526005 7.448443 1.881237 0.495140 3.261491 2.445168 0.157311 -0.834547 -11.312501 -3.288430 -9.792996 7.693246 -8.799071 37.780558 3.611986 -5.434644 15.857823 0.000000 0.000000 0.000000 0.891957 2.038294 -15.081882 16.103661 -25.660629 3.690881 22.820769 6.140922 -22.143784 0.000000 0.000000 0.000000 -7.125000 0.000000 0.000000 -6.359208 53.690630 1.361907 0.000000 0.000000 0.000000 -3.979490 2.881632 8.683860 -16.507123 -26.202738 -3.867599 -20.867348 -13.806983 -13.575969 0.000000 0.000000 0.000000 7.125000 0.000000 0.000000 4.465674 15.519602 3.117736
-0.791520 17.509621 10.745224 -537.288968 -35.897217 181.597831 0.000000 0.000000 0.000000 -17.446698 2.518244 -7.549402 2.485326 9.811073 28.367226 1.422622 3.742508 -24.150303 0.068882 1.693018 4.657983 0.000000 0.000000 0.000000 27.031276 -10.462234 -25.501636 -4.174818 -12.389482 37.124082 -1.211060 -4.020897 -22.592505 -0.950707 -6.208886 17.391972 -1.302846 0.513364 7.776312 2.107509 0.414959 3.586493 2.872989 0.091374 -0.679992 -10.774815 -2.790006 -9.551859 7.305793 -8.041777 37.159547 3.459467 -5.109966 15.318467 0.000000 0.000000 0.000000 -0.059996 3.053471 -15.816109 15.870692 -25.344887 3.590522 23.918990 2.598838 -21.888708 0.000000 0.000000 0.000000 -7.125000 0.000000 0.000000 -5.143287 53.633914 1.091581 0.000000 0.000000 0.000000 -4.536158 2.417124 6.290143 -14.085392 -22.856587 -2.861204 -18.862066 -10.836729 -11.454120 0.000000 0.000000 0.000000 7.125000 0.000000 0.000000 5.799491 17.931035 3.751731
-0.844900 17.554789 10.353697 -535.003671 -32.676567 179.963531 0.000000 0.000000 0.000000 -14.158490 2.538754 -8.290315 3.554489 11.540831 34.128802 1.580945 2.133913 -24.614970 0.389601 3.921905 10.868310 0.000000 0.000000 0.000000 29.823915 -8.847962 -20.590298 -3.362400 -11.259348 33.160086 -1.251228 -3.856233 -22.838165 -1.122369 -6.729023 18.915287 0.309779 -0.044308 7.384217 2.666722 -0.268484 3.815761 2.593757 -0.262359 -0.188887 -10.493175 -2.345887 -9.363398 7.553904 -8.168046 38.096252 3.488115 -5.256157 15.752187 0.000000 0.000000 0.000000 0.736943 2.713046 -19.009858 14.415103 -23.324975 2.990577 21.173778 4.029014 -21.315695 0.000000 0.000000 0.000000 -7.125000 0.000000 0.000000 -7.749685 52.523736 1.438288 0.000000 0.000000 0.000000 -4.267145 3.004309 4.327092 -14.326426 -23.199384 -2.955559 -19.562576 -12.042107 -11.084231 0.000000 0.000000 0.000000 7.125000 0.000000 0.000000 5.301743 18.264113 3.387702
-0.881097 17.512520 9.984217 -533.721531 -29.258198 178.588414 0.000000 0.000000 0.000000 -11.069764 4.114414 -12.412907 5.913088 14.340706 44.626501 0.807068 3.071334 -18.342057 0.019876 -0.623796 -1.715072 0.000000 0.000000 0.000000 31.588012 -8.162000 -16.112093 -2.818960 -10.395908 30.268627 -1.496250 -0.938079 -23.484742 -3.116535 -10.871658 31.858573 1.143809 -0.536155 7.648318 3.223356 -0.910426 3.852349 2.752302 -0.599922 -0.269635 -10.242877 -1.632242 -8.954172 7.164354 -7.540953 38.753586 3.366660 -5.160737 15.861264 0.000000 0.000000 0.000000 0.779346 3.031084 -19.979367 14.624882 -23.620902 3.074057 19.231056 7.726454 -21.770620 0.000000 0.000000 0.000000 -7.125000 0.000000 0.000000 -9.861576 52.641633 1.866310 0.000000 0.000000 0.000000 -4.281268 3.621717 3.206199 -15.007994 -24.157205 -3.229259 -20.802778 -13.348443 -12.310229 0.000000 0.000000 0.000000 7.125000 0.000000 0.000000 4.466098 16.864831 2.986095
-0.953126 17.545854 9.629907 -532.265277 -24.454232 177.559351 0.000000 0.000000 0.000000 -7.710414 2.934507 -17.331833 9.030623 16.826237 56.194286 0.083517 4.308658 -8.680016 0.020826 0.919181 2.526574 0.000000 0.000000 0.000000 33.471000 -7.729281 -11.680930 -2.207996 -9.286231 26.695135 -1.202707 -1.858105 -21.464166 -0.972663 -6.265062 17.559935 2.981199 -0.301264 7.758818 3.651032 -0.544393 3.962258 2.135191 -0.428140 -0.235456 -10.348842 -1.468709 -8.810869 7.166125 -7.361497 38.418312 3.399708 -5.140612 15.630798 0.000000 0.000000 0.000000 0.823166 3.271967 -21.110086 15.839150 -25.301963 3.577035 18.588433 5.213127 -22.860379 0.000000 0.000000 0.000000 -7.125000 0.000000 0.000000 -10.938545 53.628063 2.342789 0.000000 0.000000 0.000000 -4.564463 4.315190 4.430939 -15.618382 -25.000454 -3.483083 -22.239900 -16.330932 -11.833622 0.000000 0.000000 0.000000 7.125000 0.000000 0.000000 3.446117 17.239539 2.274423
-1.070419 17.502338 9.300989 -531.769389 -19.587425 177.301604 0.000000 0.000000 0.000000 -5.721226 -0.156932 -21.825480 11.463271 18.154298 64.277047 0.141203 -5.230730 -7.125768 0.042547 -1.306277 -3.592335 0.000000 0.000000 0.000000 34.224807 -6.487047 -7.787763 -1.907419 -8.670442 24.769830 -1.201924 -0.836002 -21.040234 -0.467206 -4.383870 12.159264 4.248556 -0.134071 7.814517 4.002350 -0.326440 4.168499 1.772299 -0.338482 -0.049787 -10.819954 -1.041977 -9.195368 7.099993 -6.513295 38.171811 3.574705 -4.867372 15.496431 0.000000 0.000000 0.000000 0.163304 2.775667 -21.819496 17.501847 -27.513977 4.317043 23.241891 2.191643 -24.452482 0.000000 0.000000 0.000000 -7.125000 0.000000 0.000000 -6.751945 56.202532 1.803550 0.000000 0.000000 0.000000 -5.580480 3.608170 5.889097 -15.295594 -24.556199 -3.347839 -21.327232 -15.420649 -11.755017 0.000000 0.000000 0.000000 7.125000 0.000000 0.000000 4.080846 17.406999 2.679986
-1.169577 17.472596 8.946736 -531.864391 -16.004511 177.382275 0.000000 0.000000 0.000000 -4.909382 -4.364623 -25.585169 11.627155 18.228323 64.801824 -0.087341 -10.861625 -6.188055 0.346556 -3.772399 -10.438334 0.000000 0.000000 0.000000 34.312668 -4.511747 -5.292186 -1.949998 -8.761046 25.050734 -1.272453 -0.001125 -21.341009 -0.785990 -5.659682 15.800071 4.709703 0.036093 8.354939 3.998155 -0.027569 3.945250 1.491790 -0.197032 -0.576142 -10.376507 -0.609055 -9.540510 7.081276 -6.282409 38.841115 3.510615 -4.811400 15.865301 0.000000 0.000000 0.000000 0.446481 2.868639 -21.325791 18.463763 -28.746789 4.770235 22.352422 1.638212 -21.752952 0.000000 0.000000 0.000000 -7.125000 0.000000 0.000000 -6.711722 53.198293 1.347028 0.000000 0.000000 0.000000 -5.243677 3.214271 4.644570 -15.154926 -24.361449 -3.289611 -20.947896 -13.249274 -11.824365 0.000000 0.000000 0.000000 7.125000 0.000000 0.000000 4.348014 17.367085 2.860259
-1.309320 17.454035 8.509118 -531.924524 -12.504364 177.203511 0.000000 0.000000 0.000000 -4.536866 -8.053773 -27.247426 9.725210 17.251033 58.564049 0.031184 -10.544215 -7.877961 0.341664 -3.738991 -10.345420 0.000000 0.000000 0.000000 34.088826 -4.126810 -1.719646 -1.730035 -8.279506 23.566381 -1.312883 1.438301 -21.241289 -0.668096 -5.225852 14.554220 5.256988 0.126999 8.454743 4.126667 0.068853 4.147364 1.311754 -0.165647 -0.412835 -10.171346 -0.041870 -10.013742 6.583904 -5.362266 39.188481 3.392156 -4.505600 16.008294 0.000000 0.000000 0.000000 0.539475 2.511823 -22.040756 19.084894 -29.524053 5.072632 22.793669 1.477922 -21.565053 0.000000 0.000000 0.000000 -7.125000 0.000000 0.000000 -6.194536 53.079885 1.233819 0.000000 0.000000 0.000000 -5.344418 3.075894 5.708561 -15.635223 -25.023419 -3.490349 -21.163973 -14.306048 -12.370902 0.000000 0.000000 0.000000 7.125000 0.000000 0.000000 4.215506 16.767504 2.827836
-1.435203 17.422529 8.031367 -532.105449 -9.825931 177.439417 0.000000 0.000000 0.000000 -4.422712 -10.970587 -28.115926 6.726390 15.095484 47.829030 0.279256 -6.682454 -9.840159 0.695135 -5.326253 -14.842343 0.000000 0.000000 0.000000 33.918187 -3.019489 1.519516 -1.536289 -7.824809 22.183215 -1.385476 1.312409 -21.869828 -0.526661 -4.650542 12.914446 5.639684 0.171981 8.324160 4.070946 0.121573 4.194833 1.035603 -0.139488 -0.285347 -10.076223 0.313015 -9.932111 6.565104 -4.837146 38.926419 3.441613 -4.286264 15.775911 0.000000 0.000000 0.000000 1.074930 2.399358 -22.688314 19.309131 -29.800948 5.183549 21.744360 2.761379 -21.110438 0.000000 0.000000 0.000000 -7.125000 0.000000 0.000000 -7.110043 52.412137 1.303094 0.000000 0.000000 0.000000 -4.843852 3.204276 6.907875 -16.490434 -26.180830 -3.859937 -20.313772 -14.078052 -13.139281 0.000000 0.000000 0.000000 7.125000 0.000000 0.000000 4.830396 16.035165 3.320079
-1.561128 17.345718 7.483518 -531.987097 -7.420534 177.893689 0.000000 0.000000 0.000000 -3.964033 -12.652613 -28.384053 3.937747 12.076255 36.003370 0.417414 -5.651379 -11.572924 0.822107 -5.778737 -16.145608 0.000000 0.000000 0.000000 33.752102 -3.021389 4.819629 -1.251117 -7.091475 19.986624 -1.395884 2.162853 -21.737129 -0.361975 -3.864471 10.695746 5.825819 0.179532 7.421980 4.220339 0.014796 4.399912 1.090471 -0.190822 0.427794 -9.924361 0.603845 -10.614012 6.159280 -4.261248 39.165841 3.321024 -4.090645 15.977303 0.000000 0.000000 0.000000 1.117303 1.453597 -22.923084 18.479773 -28.767120 4.777879 22.138571 1.847097 -20.591142 0.000000 0.000000 0.000000 -7.125000 0.000000 0.000000 -6.547755 51.941378 1.122484 0.000000 0.000000 0.000000 -4.682502 3.318418 9.540790 -17.306572 -27.260145 -4.226771 -21.322673 -15.960494 -12.086900 0.000000 0.000000 0.000000 7.125000 0.000000 0.000000 4.095235 17.054506 2.721133
